<svg width="40" height="40" viewBox="0 0 40 40" fill="none" xmlns="http://www.w3.org/2000/svg">
  <rect width="40" height="40" rx="20" fill="#59269E"/>
  <path d="M20 10C14.48 10 10 14.48 10 20C10 25.52 14.48 30 20 30C25.52 30 30 25.52 30 20C30 14.48 25.52 10 20 10ZM20 27C16.14 27 13 23.86 13 20C13 16.14 16.14 13 20 13C23.86 13 27 16.14 27 20C27 23.86 23.86 27 20 27Z" fill="white"/>
  <path d="M17 17L23 23M23 17L17 23" stroke="white" stroke-width="2" stroke-linecap="round" stroke-linejoin="round"/>
</svg>